<svg xmlns="http://www.w3.org/2000/svg" width="25" height="18" viewBox="0 0 29 22" fill="none">
  <path fill-rule="evenodd" clip-rule="evenodd" d="M0 0V21.44H28.6V0H0Z" fill="#2E42A5"/>
  <mask id="mask0_482_2931" style="mask-type:luminance" maskUnits="userSpaceOnUse" x="0" y="0" width="29" height="22">
    <path fill-rule="evenodd" clip-rule="evenodd" d="M0 0V21.44H28.6V0H0Z" fill="white"/>
  </mask>
  <g mask="url(#mask0_482_2931)">
    <path d="M-3.18457 19.9079L3.10922 22.5691L28.742 2.89256L32.0622 -1.06133L25.3323 -1.9502L14.8772 6.52843L6.46167 12.2422L-3.18457 19.9079Z" fill="#FAFAFA"/>
    <path d="M-2.32373 21.7725L0.883938 23.3162L30.8701 -1.42822H26.3683L-2.32373 21.7725Z" fill="#F50100"/>
    <path d="M31.7844 19.9079L25.4906 22.5691L-0.142121 2.89256L-3.4624 -1.06133L3.26754 -1.9502L13.7226 6.52843L22.1382 12.2422L31.7844 19.9079Z" fill="#FAFAFA"/>
    <path d="M31.5701 21.2462L28.3633 22.7899L15.5952 12.1949L11.8092 11.0121L-3.78223 -1.04785H0.720486L16.3021 10.7263L20.4411 12.1449L31.5701 21.2462Z" fill="#F50100"/>
    <path fill-rule="evenodd" clip-rule="evenodd" d="M17.6766 -1.78613H10.9234V7.1472H-1.76245V14.2939H10.9234V23.2272H17.6766V14.2939H30.4126V7.1472H17.6766V-1.78613Z" fill="#F50100"/>
    <mask id="mask1_482_2931" style="mask-type:luminance" maskUnits="userSpaceOnUse" x="-2" y="-2" width="33" height="26">
      <path fill-rule="evenodd" clip-rule="evenodd" d="M17.6766 -1.78613H10.9234V7.1472H-1.76245V14.2939H10.9234V23.2272H17.6766V14.2939H30.4126V7.1472H17.6766V-1.78613Z" fill="white"/>
    </mask>
    <g mask="url(#mask1_482_2931)">
      <path d="M10.8267 -1.75093V-3.5376H9.03916V-1.75093H10.8267ZM17.5798 -1.75093H19.3673V-3.5376H17.5798V-1.75093ZM10.8267 7.1824V8.96907H12.6142V7.1824H10.8267ZM-1.85923 7.1824V5.39574H-3.64673V7.1824H-1.85923ZM-1.85923 14.3291H-3.64673V16.1157H-1.85923V14.3291ZM10.8267 14.3291H12.6142V12.5424H10.8267V14.3291ZM10.8267 23.2624H9.03916V25.0491H10.8267V23.2624ZM17.5798 23.2624V25.0491H19.3673V23.2624H17.5798ZM17.5798 14.3291V12.5424H15.7923V14.3291H17.5798ZM30.3158 14.3291V16.1157H32.1033V14.3291H30.3158ZM30.3158 7.1824H32.1033V5.39574H30.3158V7.1824ZM17.5798 7.1824H15.7923V8.96907H17.5798V7.1824ZM10.8267 0.0357356H17.5798V-3.5376H10.8267V0.0357356ZM12.6142 7.1824V-1.75093H9.03916V7.1824H12.6142ZM-1.85923 8.96907H10.8267V5.39574H-1.85923V8.96907ZM-0.0717285 14.3291V7.1824H-3.64673V14.3291H-0.0717285ZM10.8267 12.5424H-1.85923V16.1157H10.8267V12.5424ZM12.6142 23.2624V14.3291H9.03916V23.2624H12.6142ZM17.5798 21.4757H10.8267V25.0491H17.5798V21.4757ZM15.7923 14.3291V23.2624H19.3673V14.3291H15.7923ZM30.3158 12.5424H17.5798V16.1157H30.3158V12.5424ZM28.5283 7.1824V14.3291H32.1033V7.1824H28.5283ZM17.5798 8.96907H30.3158V5.39574H17.5798V8.96907ZM15.7923 -1.75093V7.1824H19.3673V-1.75093H15.7923Z" fill="#FAFAFA"/>
    </g>
  </g>
</svg>