<svg xmlns="http://www.w3.org/2000/svg" style="display:none">
  <!--Search icon--> 
  <symbol id="icon-search" viewBox="0 0 33 33" fill="none">
    <path
      d="M25.3265 25.3269L21.0673 21.0677M21.0673 21.0677C21.7959 20.3391 22.3738 19.4742 22.7681 18.5223C23.1624 17.5703 23.3653 16.5501 23.3653 15.5198C23.3653 14.4894 23.1624 13.4692 22.7681 12.5172C22.3738 11.5653 21.7959 10.7004 21.0673 9.97185C20.3387 9.24328 19.4738 8.66536 18.5219 8.27106C17.57 7.87677 16.5497 7.67383 15.5194 7.67383C14.489 7.67383 13.4688 7.87677 12.5169 8.27106C11.565 8.66536 10.7 9.24328 9.97148 9.97185C8.50008 11.4432 7.67346 13.4389 7.67346 15.5198C7.67346 17.6006 8.50008 19.5963 9.97148 21.0677C11.4429 22.5391 13.4385 23.3657 15.5194 23.3657C17.6003 23.3657 19.5959 22.5391 21.0673 21.0677Z"
      stroke="currentColor"
      stroke-width="1.5"
      stroke-linecap="round"
      stroke-linejoin="round"
    />
  </symbol>

   <!--Cart icon--> 
  <symbol id="icon-cart" viewBox="0 0 33 33" fill="none">
    <path
      d="M12.9715 14.2126C12.9715 14.2126 12.9303 7.06913 16.4746 7.06836C20.019 7.06759 20.0798 14.2126 20.0798 14.2126M10.2614 11.4075H22.7389V26.0131H10.2614V11.4075Z" 
      stroke="currentColor" 
      stroke-width="1.5"
      />
  </symbol>
  
    <!--Profile icon--> 
  <symbol id="icon-profile" viewBox="0 0 33 33" fill="none">
    <path d="M22.5122 26.0186V12.9947H16.4999H10.4877V26.0186H22.5122Z" 
      stroke="currentColor" 
      stroke-width="1.5"/>
    <path d="M19.5079 7.03345C19.4717 8.65755 18.1686 9.91713 16.5445 9.95268C14.8831 9.98904 13.4853 8.69486 13.4483 7.03345C13.4105 5.33599 14.847 3.94402 16.5445 3.9812C18.2055 4.01758 19.5449 5.37249 19.5079 7.03345Z" 
      stroke="currentColor" 
      stroke-width="1.5"/>
  </symbol>

  <!--Arrow down icon-->   
  <symbol id="icon-arrow"  viewBox="0 0 12 7" >
    <path d="M11.1916 0L6.16543 5.01909L0.774153 0.0274819L0 0.704941L6.16543 6.315L11.905 0.701628L11.1916 0Z" fill="currentColor" />

  </symbol>

  <!--see more icon-->   
  <symbol id="icon-see-more"  viewBox="0 0 43 21" fill="none">
    <path d="M32.4143 0L42.5454 10.1311L32.3879 20.2903L30.9736 18.8761L38.8496 11.0001H0V9.00012H38.5859L31 1.41418L32.4143 0Z" fill="currentColor"/>

  </symbol>





  </svg>





