<svg xmlns="http://www.w3.org/2000/svg" style="display:none">
  <!--Search icon--> 
  <symbol id="icon-search" viewBox="0 0 33 33" fill="none">
    <path
      d="M25.3265 25.3269L21.0673 21.0677M21.0673 21.0677C21.7959 20.3391 22.3738 19.4742 22.7681 18.5223C23.1624 17.5703 23.3653 16.5501 23.3653 15.5198C23.3653 14.4894 23.1624 13.4692 22.7681 12.5172C22.3738 11.5653 21.7959 10.7004 21.0673 9.97185C20.3387 9.24328 19.4738 8.66536 18.5219 8.27106C17.57 7.87677 16.5497 7.67383 15.5194 7.67383C14.489 7.67383 13.4688 7.87677 12.5169 8.27106C11.565 8.66536 10.7 9.24328 9.97148 9.97185C8.50008 11.4432 7.67346 13.4389 7.67346 15.5198C7.67346 17.6006 8.50008 19.5963 9.97148 21.0677C11.4429 22.5391 13.4385 23.3657 15.5194 23.3657C17.6003 23.3657 19.5959 22.5391 21.0673 21.0677Z"
      stroke="currentColor"
      stroke-width="1.5"
      stroke-linecap="round"
      stroke-linejoin="round"
    />
  </symbol>

   <!--Cart icon--> 
  <symbol id="icon-cart" viewBox="0 0 33 33" fill="none">
    <path
      d="M12.9715 14.2126C12.9715 14.2126 12.9303 7.06913 16.4746 7.06836C20.019 7.06759 20.0798 14.2126 20.0798 14.2126M10.2614 11.4075H22.7389V26.0131H10.2614V11.4075Z" 
      stroke="currentColor" 
      stroke-width="1.5"
      />
  </symbol>
  
    <!--Profile icon--> 
  <symbol id="icon-profile" viewBox="0 0 33 33" fill="none">
    <path d="M22.5122 26.0186V12.9947H16.4999H10.4877V26.0186H22.5122Z" 
      stroke="currentColor" 
      stroke-width="1.5"/>
    <path d="M19.5079 7.03345C19.4717 8.65755 18.1686 9.91713 16.5445 9.95268C14.8831 9.98904 13.4853 8.69486 13.4483 7.03345C13.4105 5.33599 14.847 3.94402 16.5445 3.9812C18.2055 4.01758 19.5449 5.37249 19.5079 7.03345Z" 
      stroke="currentColor" 
      stroke-width="1.5"/>
  </symbol>

    <!--Swedish flag icon-->   
  <!-- <symbol id="icon-sweden" width="29" height="22" viewBox="0 0 29 22"  fill="#FECA00">
    <path fill-rule="evenodd" clip-rule="evenodd" 
      d="M8.84079 0H12.4152V8.93519H28.5V12.5093H12.4152V21.4445H8.84079V12.5093H-0.0952148V8.93519H8.84079V0Z"
    />
  </symbol> -->

    <!--English flag icon-->  
  <!-- <symbol id="icon-england" width="29" height="22" viewBox="0 0 29 22" fill="#FAFAFA">
    <path d="M10.8267 -1.75093V-3.5376H9.03916V-1.75093H10.8267ZM17.5798 -1.75093H19.3673V-3.5376H17.5798V-1.75093ZM10.8267 7.1824V8.96907H12.6142V7.1824H10.8267ZM-1.85923 7.1824V5.39574H-3.64673V7.1824H-1.85923ZM-1.85923 14.3291H-3.64673V16.1157H-1.85923V14.3291ZM10.8267 14.3291H12.6142V12.5424H10.8267V14.3291ZM10.8267 23.2624H9.03916V25.0491H10.8267V23.2624ZM17.5798 23.2624V25.0491H19.3673V23.2624H17.5798ZM17.5798 14.3291V12.5424H15.7923V14.3291H17.5798ZM30.3158 14.3291V16.1157H32.1033V14.3291H30.3158ZM30.3158 7.1824H32.1033V5.39574H30.3158V7.1824ZM17.5798 7.1824H15.7923V8.96907H17.5798V7.1824ZM10.8267 0.0357356H17.5798V-3.5376H10.8267V0.0357356ZM12.6142 7.1824V-1.75093H9.03916V7.1824H12.6142ZM-1.85923 8.96907H10.8267V5.39574H-1.85923V8.96907ZM-0.0717285 14.3291V7.1824H-3.64673V14.3291H-0.0717285ZM10.8267 12.5424H-1.85923V16.1157H10.8267V12.5424ZM12.6142 23.2624V14.3291H9.03916V23.2624H12.6142ZM17.5798 21.4757H10.8267V25.0491H17.5798V21.4757ZM15.7923 14.3291V23.2624H19.3673V14.3291H15.7923ZM30.3158 12.5424H17.5798V16.1157H30.3158V12.5424ZM28.5283 7.1824V14.3291H32.1033V7.1824H28.5283ZM17.5798 8.96907H30.3158V5.39574H17.5798V8.96907ZM15.7923 -1.75093V7.1824H19.3673V-1.75093H15.7923Z"/>
  </symbol> -->


  <!--Arrow down icon-->   
  <symbol id="icon-arrow-down"  viewBox="0 0 12 7" >
    <path d="M11.1916 0L6.16543 5.01909L0.774153 0.0274819L0 0.704941L6.16543 6.315L11.905 0.701628L11.1916 0Z" fill="currentColor" />

  </symbol>

  <!--Arrow up icon-->   
  <symbol id="icon-arrow-down"  viewBox="0 0 12 7">
    <path d="M0.713415 6.31494L5.7396 1.29586L11.1309 6.28746L11.905 5.61L5.7396 -5.8651e-05L2.95639e-05 5.61331L0.713415 6.31494Z" fill="currentColor/>
  </symbol>



  </svg>





