<svg width="24" height="24" viewBox="0 0 24 24" fill="none" xmlns="http://www.w3.org/2000/svg">
<path d="M18.2579 20.7337H5.50893C4.85233 20.7337 4.22262 20.4728 3.75833 20.0085C3.29404 19.5443 3.0332 18.9145 3.0332 18.2579V5.50893C3.0332 4.85233 3.29404 4.22262 3.75833 3.75833C4.22262 3.29404 4.85233 3.0332 5.50893 3.0332H18.2579C18.9145 3.0332 19.5443 3.29404 20.0085 3.75833C20.4728 4.22262 20.7337 4.85233 20.7337 5.50893V18.2579C20.7337 18.9145 20.4728 19.5443 20.0085 20.0085C19.5443 20.4728 18.9145 20.7337 18.2579 20.7337ZM5.50893 4.02349C5.11497 4.02349 4.73714 4.18 4.45857 4.45857C4.18 4.73714 4.02349 5.11497 4.02349 5.50893V18.2579C4.02349 18.6519 4.18 19.0297 4.45857 19.3083C4.73714 19.5869 5.11497 19.7434 5.50893 19.7434H18.2579C18.6519 19.7434 19.0297 19.5869 19.3083 19.3083C19.5869 19.0297 19.7434 18.6519 19.7434 18.2579V5.50893C19.7434 5.11497 19.5869 4.73714 19.3083 4.45857C19.0297 4.18 18.6519 4.02349 18.2579 4.02349H5.50893Z" fill="#FAFAFA"/>
<path d="M11.8833 16.4328C10.9835 16.4318 10.1042 16.1641 9.35652 15.6635C8.60884 15.1628 8.02638 14.4517 7.68276 13.6201C7.33914 12.7885 7.24979 11.8737 7.426 10.9913C7.60222 10.1089 8.03609 9.29856 8.67277 8.66271C9.30945 8.02686 10.1204 7.59405 11.003 7.41899C11.8856 7.24392 12.8003 7.33446 13.6315 7.67917C14.4626 8.02387 15.1729 8.60726 15.6726 9.35559C16.1723 10.1039 16.4389 10.9836 16.4387 11.8834C16.4371 13.0905 15.9565 14.2477 15.1023 15.1007C14.2482 15.9537 13.0905 16.4328 11.8833 16.4328ZM11.8833 8.31836C11.1796 8.31934 10.492 8.52884 9.90731 8.92041C9.32262 9.31197 8.86708 9.86803 8.59824 10.5184C8.32939 11.1687 8.25931 11.8841 8.39684 12.5742C8.53436 13.2643 8.87333 13.8982 9.37092 14.3958C9.86851 14.8934 10.5024 15.2324 11.1925 15.3699C11.8827 15.5074 12.5981 15.4373 13.2484 15.1685C13.8987 14.8997 14.4548 14.4441 14.8463 13.8594C15.2379 13.2747 15.4474 12.5871 15.4484 11.8834C15.4484 10.9379 15.0728 10.0311 14.4042 9.36254C13.7356 8.69396 12.8288 8.31836 11.8833 8.31836Z" fill="#FAFAFA"/>
<path d="M17.0328 7.82835C17.6208 7.82835 18.0974 7.35172 18.0974 6.76378C18.0974 6.17584 17.6208 5.69922 17.0328 5.69922C16.4449 5.69922 15.9683 6.17584 15.9683 6.76378C15.9683 7.35172 16.4449 7.82835 17.0328 7.82835Z" fill="#FAFAFA"/>
</svg>
