<svg width="33" height="33" viewBox="0 0 33 33" fill="none" xmlns="http://www.w3.org/2000/svg">
<path d="M25.3264 25.3265L21.0672 21.0673M21.0672 21.0673C21.7957 20.3387 22.3737 19.4738 22.768 18.5219C23.1622 17.57 23.3652 16.5497 23.3652 15.5194C23.3652 14.489 23.1622 13.4688 22.768 12.5169C22.3737 11.565 21.7957 10.7 21.0672 9.97148C20.3386 9.24292 19.4737 8.66499 18.5218 8.2707C17.5699 7.8764 16.5496 7.67346 15.5193 7.67346C14.4889 7.67346 13.4687 7.8764 12.5168 8.2707C11.5648 8.66499 10.6999 9.24292 9.97136 9.97148C8.49996 11.4429 7.67334 13.4385 7.67334 15.5194C7.67334 17.6003 8.49996 19.5959 9.97136 21.0673C11.4428 22.5387 13.4384 23.3653 15.5193 23.3653C17.6001 23.3653 19.5958 22.5387 21.0672 21.0673Z" stroke="#1B1B1B" stroke-width="1.5" stroke-linecap="round" stroke-linejoin="round"/>
</svg>
