<svg width="24" height="24" viewBox="0 0 24 24" fill="none" xmlns="http://www.w3.org/2000/svg">
<path fill-rule="evenodd" clip-rule="evenodd" d="M13.8643 2.9707C14.1269 2.9707 14.3788 3.07504 14.5645 3.26075C14.7502 3.44647 14.8546 3.69835 14.8546 3.96099C14.8551 4.87397 15.1707 5.75878 15.7481 6.46602C16.3254 7.17327 17.1291 7.65961 18.0235 7.84294C18.2809 7.89546 18.5069 8.04809 18.6517 8.26723C18.7966 8.48638 18.8485 8.75409 18.7959 9.01148C18.7434 9.26887 18.5908 9.49485 18.3716 9.63971C18.1525 9.78457 17.8848 9.83644 17.6274 9.78391C16.5957 9.57243 15.6388 9.09054 14.8546 8.3876V16.8348C14.8546 17.8141 14.5642 18.7714 14.0201 19.5857C13.476 20.3999 12.7027 21.0346 11.798 21.4093C10.8932 21.7841 9.89763 21.8822 8.93714 21.6911C7.97665 21.5 7.09438 21.0285 6.40191 20.336C5.70944 19.6435 5.23786 18.7613 5.0468 17.8008C4.85575 16.8403 4.95381 15.8447 5.32857 14.9399C5.70333 14.0352 6.33797 13.2619 7.15224 12.7178C7.9665 12.1737 8.92381 11.8833 9.90312 11.8833C10.1658 11.8833 10.4176 11.9877 10.6034 12.1734C10.7891 12.3591 10.8934 12.611 10.8934 12.8736C10.8934 13.1363 10.7891 13.3881 10.6034 13.5739C10.4176 13.7596 10.1658 13.8639 9.90312 13.8639C9.31554 13.8639 8.74115 14.0381 8.25259 14.3646C7.76403 14.691 7.38325 15.155 7.15839 15.6979C6.93353 16.2407 6.8747 16.8381 6.98933 17.4144C7.10396 17.9907 7.38691 18.52 7.80239 18.9355C8.21788 19.351 8.74724 19.6339 9.32353 19.7486C9.89982 19.8632 10.4972 19.8044 11.04 19.5795C11.5829 19.3547 12.0469 18.9739 12.3733 18.4853C12.6998 17.9968 12.874 17.4224 12.874 16.8348V3.96099C12.874 3.69835 12.9783 3.44647 13.164 3.26075C13.3498 3.07504 13.6016 2.9707 13.8643 2.9707Z" fill="#FAFAFA"/>
</svg>
